%TF.GenerationSoftware,KiCad,Pcbnew,(6.0.5)*%
%TF.CreationDate,2022-05-11T11:26:58+00:00*%
%TF.ProjectId,ursus-arctos,75727375-732d-4617-9263-746f732e6b69,v1.0.0*%
%TF.SameCoordinates,Original*%
%TF.FileFunction,Legend,Top*%
%TF.FilePolarity,Positive*%
%FSLAX46Y46*%
G04 Gerber Fmt 4.6, Leading zero omitted, Abs format (unit mm)*
G04 Created by KiCad (PCBNEW (6.0.5)) date 2022-05-11 11:26:58*
%MOMM*%
%LPD*%
G01*
G04 APERTURE LIST*
%ADD10C,0.300000*%
%ADD11C,0.250000*%
%ADD12C,0.101600*%
%ADD13C,0.254000*%
%ADD14C,0.120000*%
G04 APERTURE END LIST*
D10*
X-71196428Y65280357D02*
X-71196428Y64447023D01*
X-71732142Y65280357D02*
X-71732142Y64625595D01*
X-71672619Y64506547D01*
X-71553571Y64447023D01*
X-71375000Y64447023D01*
X-71255952Y64506547D01*
X-71196428Y64566071D01*
X-70601190Y64447023D02*
X-70601190Y65280357D01*
X-70601190Y65042261D02*
X-70541666Y65161309D01*
X-70482142Y65220833D01*
X-70363095Y65280357D01*
X-70244047Y65280357D01*
X-69886904Y64506547D02*
X-69767857Y64447023D01*
X-69529761Y64447023D01*
X-69410714Y64506547D01*
X-69351190Y64625595D01*
X-69351190Y64685119D01*
X-69410714Y64804166D01*
X-69529761Y64863690D01*
X-69708333Y64863690D01*
X-69827380Y64923214D01*
X-69886904Y65042261D01*
X-69886904Y65101785D01*
X-69827380Y65220833D01*
X-69708333Y65280357D01*
X-69529761Y65280357D01*
X-69410714Y65220833D01*
X-68279761Y65280357D02*
X-68279761Y64447023D01*
X-68815476Y65280357D02*
X-68815476Y64625595D01*
X-68755952Y64506547D01*
X-68636904Y64447023D01*
X-68458333Y64447023D01*
X-68339285Y64506547D01*
X-68279761Y64566071D01*
X-67744047Y64506547D02*
X-67625000Y64447023D01*
X-67386904Y64447023D01*
X-67267857Y64506547D01*
X-67208333Y64625595D01*
X-67208333Y64685119D01*
X-67267857Y64804166D01*
X-67386904Y64863690D01*
X-67565476Y64863690D01*
X-67684523Y64923214D01*
X-67744047Y65042261D01*
X-67744047Y65101785D01*
X-67684523Y65220833D01*
X-67565476Y65280357D01*
X-67386904Y65280357D01*
X-67267857Y65220833D01*
X-71583333Y62434523D02*
X-71583333Y63089285D01*
X-71642857Y63208333D01*
X-71761904Y63267857D01*
X-72000000Y63267857D01*
X-72119047Y63208333D01*
X-71583333Y62494047D02*
X-71702380Y62434523D01*
X-72000000Y62434523D01*
X-72119047Y62494047D01*
X-72178571Y62613095D01*
X-72178571Y62732142D01*
X-72119047Y62851190D01*
X-72000000Y62910714D01*
X-71702380Y62910714D01*
X-71583333Y62970238D01*
X-70988095Y62434523D02*
X-70988095Y63267857D01*
X-70988095Y63029761D02*
X-70928571Y63148809D01*
X-70869047Y63208333D01*
X-70750000Y63267857D01*
X-70630952Y63267857D01*
X-69678571Y62494047D02*
X-69797619Y62434523D01*
X-70035714Y62434523D01*
X-70154761Y62494047D01*
X-70214285Y62553571D01*
X-70273809Y62672619D01*
X-70273809Y63029761D01*
X-70214285Y63148809D01*
X-70154761Y63208333D01*
X-70035714Y63267857D01*
X-69797619Y63267857D01*
X-69678571Y63208333D01*
X-69321428Y63267857D02*
X-68845238Y63267857D01*
X-69142857Y63684523D02*
X-69142857Y62613095D01*
X-69083333Y62494047D01*
X-68964285Y62434523D01*
X-68845238Y62434523D01*
X-68250000Y62434523D02*
X-68369047Y62494047D01*
X-68428571Y62553571D01*
X-68488095Y62672619D01*
X-68488095Y63029761D01*
X-68428571Y63148809D01*
X-68369047Y63208333D01*
X-68250000Y63267857D01*
X-68071428Y63267857D01*
X-67952380Y63208333D01*
X-67892857Y63148809D01*
X-67833333Y63029761D01*
X-67833333Y62672619D01*
X-67892857Y62553571D01*
X-67952380Y62494047D01*
X-68071428Y62434523D01*
X-68250000Y62434523D01*
X-67357142Y62494047D02*
X-67238095Y62434523D01*
X-67000000Y62434523D01*
X-66880952Y62494047D01*
X-66821428Y62613095D01*
X-66821428Y62672619D01*
X-66880952Y62791666D01*
X-67000000Y62851190D01*
X-67178571Y62851190D01*
X-67297619Y62910714D01*
X-67357142Y63029761D01*
X-67357142Y63089285D01*
X-67297619Y63208333D01*
X-67178571Y63267857D01*
X-67000000Y63267857D01*
X-66880952Y63208333D01*
X-71285714Y61255357D02*
X-70988095Y60422023D01*
X-70690476Y61255357D01*
X-70273809Y61552976D02*
X-70214285Y61612500D01*
X-70095238Y61672023D01*
X-69797619Y61672023D01*
X-69678571Y61612500D01*
X-69619047Y61552976D01*
X-69559523Y61433928D01*
X-69559523Y61314880D01*
X-69619047Y61136309D01*
X-70333333Y60422023D01*
X-69559523Y60422023D01*
X-69023809Y60541071D02*
X-68964285Y60481547D01*
X-69023809Y60422023D01*
X-69083333Y60481547D01*
X-69023809Y60541071D01*
X-69023809Y60422023D01*
X-68190476Y61672023D02*
X-68071428Y61672023D01*
X-67952380Y61612500D01*
X-67892857Y61552976D01*
X-67833333Y61433928D01*
X-67773809Y61195833D01*
X-67773809Y60898214D01*
X-67833333Y60660119D01*
X-67892857Y60541071D01*
X-67952380Y60481547D01*
X-68071428Y60422023D01*
X-68190476Y60422023D01*
X-68309523Y60481547D01*
X-68369047Y60541071D01*
X-68428571Y60660119D01*
X-68488095Y60898214D01*
X-68488095Y61195833D01*
X-68428571Y61433928D01*
X-68369047Y61552976D01*
X-68309523Y61612500D01*
X-68190476Y61672023D01*
D11*
X-70047619Y34166666D02*
X-69333333Y34166666D01*
X-69190476Y34119047D01*
X-69095238Y34023809D01*
X-69047619Y33880952D01*
X-69047619Y33785714D01*
X-69047619Y35119047D02*
X-69047619Y34642857D01*
X-70047619Y34642857D01*
X-69142857Y36023809D02*
X-69095238Y35976190D01*
X-69047619Y35833333D01*
X-69047619Y35738095D01*
X-69095238Y35595238D01*
X-69190476Y35500000D01*
X-69285714Y35452380D01*
X-69476190Y35404761D01*
X-69619047Y35404761D01*
X-69809523Y35452380D01*
X-69904761Y35500000D01*
X-70000000Y35595238D01*
X-70047619Y35738095D01*
X-70047619Y35833333D01*
X-70000000Y35976190D01*
X-69952380Y36023809D01*
X-70047619Y36738095D02*
X-69333333Y36738095D01*
X-69190476Y36690476D01*
X-69095238Y36595238D01*
X-69047619Y36452380D01*
X-69047619Y36357142D01*
X-69047619Y37690476D02*
X-69047619Y37214285D01*
X-70047619Y37214285D01*
X-69142857Y38595238D02*
X-69095238Y38547619D01*
X-69047619Y38404761D01*
X-69047619Y38309523D01*
X-69095238Y38166666D01*
X-69190476Y38071428D01*
X-69285714Y38023809D01*
X-69476190Y37976190D01*
X-69619047Y37976190D01*
X-69809523Y38023809D01*
X-69904761Y38071428D01*
X-70000000Y38166666D01*
X-70047619Y38309523D01*
X-70047619Y38404761D01*
X-70000000Y38547619D01*
X-69952380Y38595238D01*
X-70047619Y39309523D02*
X-69333333Y39309523D01*
X-69190476Y39261904D01*
X-69095238Y39166666D01*
X-69047619Y39023809D01*
X-69047619Y38928571D01*
X-69047619Y40261904D02*
X-69047619Y39785714D01*
X-70047619Y39785714D01*
X-69142857Y41166666D02*
X-69095238Y41119047D01*
X-69047619Y40976190D01*
X-69047619Y40880952D01*
X-69095238Y40738095D01*
X-69190476Y40642857D01*
X-69285714Y40595238D01*
X-69476190Y40547619D01*
X-69619047Y40547619D01*
X-69809523Y40595238D01*
X-69904761Y40642857D01*
X-70000000Y40738095D01*
X-70047619Y40880952D01*
X-70047619Y40976190D01*
X-70000000Y41119047D01*
X-69952380Y41166666D01*
X-70238095Y13019285D02*
X-70238095Y12162142D01*
X-70285714Y12066904D01*
X-70380952Y12019285D01*
X-70428571Y12019285D01*
X-70238095Y13352619D02*
X-70285714Y13305000D01*
X-70238095Y13257380D01*
X-70190476Y13305000D01*
X-70238095Y13352619D01*
X-70238095Y13257380D01*
X-69380952Y12400238D02*
X-69476190Y12352619D01*
X-69666666Y12352619D01*
X-69761904Y12400238D01*
X-69809523Y12495476D01*
X-69809523Y12876428D01*
X-69761904Y12971666D01*
X-69666666Y13019285D01*
X-69476190Y13019285D01*
X-69380952Y12971666D01*
X-69333333Y12876428D01*
X-69333333Y12781190D01*
X-69809523Y12685952D01*
X-68904761Y12352619D02*
X-68904761Y13019285D01*
X-68904761Y12828809D02*
X-68857142Y12924047D01*
X-68809523Y12971666D01*
X-68714285Y13019285D01*
X-68619047Y13019285D01*
X-71214285Y11647380D02*
X-71166666Y11695000D01*
X-71071428Y11742619D01*
X-70833333Y11742619D01*
X-70738095Y11695000D01*
X-70690476Y11647380D01*
X-70642857Y11552142D01*
X-70642857Y11456904D01*
X-70690476Y11314047D01*
X-71261904Y10742619D01*
X-70642857Y10742619D01*
X-70023809Y11742619D02*
X-69928571Y11742619D01*
X-69833333Y11695000D01*
X-69785714Y11647380D01*
X-69738095Y11552142D01*
X-69690476Y11361666D01*
X-69690476Y11123571D01*
X-69738095Y10933095D01*
X-69785714Y10837857D01*
X-69833333Y10790238D01*
X-69928571Y10742619D01*
X-70023809Y10742619D01*
X-70119047Y10790238D01*
X-70166666Y10837857D01*
X-70214285Y10933095D01*
X-70261904Y11123571D01*
X-70261904Y11361666D01*
X-70214285Y11552142D01*
X-70166666Y11647380D01*
X-70119047Y11695000D01*
X-70023809Y11742619D01*
X-69309523Y11647380D02*
X-69261904Y11695000D01*
X-69166666Y11742619D01*
X-68928571Y11742619D01*
X-68833333Y11695000D01*
X-68785714Y11647380D01*
X-68738095Y11552142D01*
X-68738095Y11456904D01*
X-68785714Y11314047D01*
X-69357142Y10742619D01*
X-68738095Y10742619D01*
X-68357142Y11647380D02*
X-68309523Y11695000D01*
X-68214285Y11742619D01*
X-67976190Y11742619D01*
X-67880952Y11695000D01*
X-67833333Y11647380D01*
X-67785714Y11552142D01*
X-67785714Y11456904D01*
X-67833333Y11314047D01*
X-68404761Y10742619D01*
X-67785714Y10742619D01*
D12*
%TO.C,U1*%
X-139677333Y623583D02*
X-139677333Y-96083D01*
X-139635000Y-180750D01*
X-139592666Y-223083D01*
X-139508000Y-265416D01*
X-139338666Y-265416D01*
X-139254000Y-223083D01*
X-139211666Y-180750D01*
X-139169333Y-96083D01*
X-139169333Y623583D01*
X-138280333Y-265416D02*
X-138788333Y-265416D01*
X-138534333Y-265416D02*
X-138534333Y623583D01*
X-138619000Y496583D01*
X-138703666Y411916D01*
X-138788333Y369583D01*
%TO.C,U2*%
X-677333Y486833D02*
X-677333Y-232833D01*
X-635000Y-317500D01*
X-592666Y-359833D01*
X-507999Y-402166D01*
X-338666Y-402166D01*
X-254000Y-359833D01*
X-211666Y-317500D01*
X-169333Y-232833D01*
X-169333Y486833D01*
X211666Y402166D02*
X253999Y444500D01*
X338666Y486833D01*
X550333Y486833D01*
X634999Y444500D01*
X677333Y402166D01*
X719666Y317500D01*
X719666Y232833D01*
X677333Y105833D01*
X169333Y-402166D01*
X719666Y-402166D01*
%TO.C,U1*%
D13*
X-128713000Y-7483250D02*
G75*
G03*
X-128713000Y-7483250I-127000J0D01*
G01*
%TO.C,U2*%
X10287000Y-7620000D02*
G75*
G03*
X10287000Y-7620000I-127000J0D01*
G01*
D14*
%TO.C,S24*%
X25521331Y60606377D02*
X25868628Y62575992D01*
X25521331Y60606377D02*
X21532860Y61309652D01*
X25868628Y62575992D02*
X21880156Y63279267D01*
%TO.C,S17*%
X-97663367Y319159D02*
X-101651838Y1022434D01*
X-97663367Y319159D02*
X-97316070Y2288774D01*
X-97316070Y2288774D02*
X-101304542Y2992049D01*
%TO.C,S34*%
X-16600000Y9483334D02*
X-20650000Y9483334D01*
X-16600000Y7483334D02*
X-20650000Y7483334D01*
X-16600000Y7483334D02*
X-16600000Y9483334D01*
%TO.C,S27*%
X3880077Y70159931D02*
X-154512Y70512912D01*
X4054388Y72152320D02*
X19800Y72505301D01*
X3880077Y70159931D02*
X4054388Y72152320D01*
%TO.C,S11*%
X-115100000Y51483334D02*
X-119150000Y51483334D01*
X-115100000Y49483334D02*
X-115100000Y51483334D01*
X-115100000Y49483334D02*
X-119150000Y49483334D01*
%TO.C,S18*%
X-78405420Y-5274098D02*
X-82211175Y-3888917D01*
X-77721380Y-3394713D02*
X-81527135Y-2009531D01*
X-78405420Y-5274098D02*
X-77721380Y-3394713D01*
%TO.C,S16*%
X-117600000Y7483334D02*
X-117600000Y9483334D01*
X-117600000Y7483334D02*
X-121650000Y7483334D01*
X-117600000Y9483334D02*
X-121650000Y9483334D01*
%TO.C,S10*%
X-115100000Y32483334D02*
X-115100000Y34483334D01*
X-115100000Y32483334D02*
X-119150000Y32483334D01*
X-115100000Y34483334D02*
X-119150000Y34483334D01*
%TO.C,S23*%
X22569312Y43864646D02*
X22916609Y45834261D01*
X22916609Y45834261D02*
X18928137Y46537536D01*
X22569312Y43864646D02*
X18580841Y44567921D01*
%TO.C,S1*%
X-168575498Y5297753D02*
X-172381253Y3912572D01*
X-168575498Y5297753D02*
X-169259539Y7177139D01*
X-169259539Y7177139D02*
X-173065294Y5791957D01*
%TO.C,S12*%
X-115100000Y68483334D02*
X-119150000Y68483334D01*
X-115100000Y66483334D02*
X-115100000Y68483334D01*
X-115100000Y66483334D02*
X-119150000Y66483334D01*
%TO.C,S32*%
X-37100000Y46650000D02*
X-41150000Y46650000D01*
X-37100000Y46650000D02*
X-37100000Y48650000D01*
X-37100000Y48650000D02*
X-41150000Y48650000D01*
%TO.C,S7*%
X-135135047Y36707659D02*
X-139169636Y36354679D01*
X-135135047Y36707659D02*
X-135309359Y38700049D01*
X-135309359Y38700049D02*
X-139343947Y38347068D01*
%TO.C,S2*%
X-174389841Y21272527D02*
X-175073882Y23151913D01*
X-175073882Y23151913D02*
X-178879637Y21766731D01*
X-174389841Y21272527D02*
X-178195596Y19887346D01*
%TO.C,S35*%
X-36956853Y3122285D02*
X-40945324Y2419010D01*
X-36609556Y1152670D02*
X-36956853Y3122285D01*
X-36609556Y1152670D02*
X-40598028Y449395D01*
%TO.C,J1*%
X-98460000Y14060000D02*
X-98460000Y13140000D01*
X-96860000Y8860000D02*
X-98460000Y8860000D01*
X-96860000Y9140000D02*
X-98075000Y9140000D01*
X-94500000Y12300000D02*
X-94500000Y13300000D01*
X-95000000Y10500000D02*
X-95000000Y11500000D01*
X-92900000Y9700000D02*
X-90640000Y9700000D01*
X-90640000Y10500000D02*
X-95000000Y10500000D01*
X-98460000Y7940000D02*
X-90640000Y7940000D01*
X-94500000Y8700000D02*
X-92900000Y8700000D01*
X-96860000Y14060000D02*
X-96860000Y13140000D01*
X-92900000Y9700000D02*
X-94500000Y9700000D01*
X-92900000Y8700000D02*
X-92900000Y9700000D01*
X-96860000Y9140000D02*
X-96860000Y8860000D01*
X-94500000Y9700000D02*
X-94500000Y8700000D01*
X-98460000Y8860000D02*
X-98460000Y7940000D01*
X-92900000Y12300000D02*
X-94500000Y12300000D01*
X-94500000Y13300000D02*
X-92900000Y13300000D01*
X-96860000Y13140000D02*
X-96860000Y12860000D01*
X-90640000Y7940000D02*
X-90640000Y14060000D01*
X-92900000Y9200000D02*
X-90640000Y9200000D01*
X-96860000Y7940000D02*
X-96860000Y8860000D01*
X-92900000Y13300000D02*
X-92900000Y12300000D01*
X-98460000Y13140000D02*
X-96860000Y13140000D01*
X-95000000Y11500000D02*
X-90640000Y11500000D01*
X-90640000Y14060000D02*
X-98460000Y14060000D01*
%TO.C,S31*%
X-37100000Y31650000D02*
X-41150000Y31650000D01*
X-37100000Y29650000D02*
X-37100000Y31650000D01*
X-37100000Y29650000D02*
X-41150000Y29650000D01*
%TO.C,S5*%
X-156842235Y44698157D02*
X-160830707Y43994882D01*
X-157189532Y46667772D02*
X-161178003Y45964497D01*
X-156842235Y44698157D02*
X-157189532Y46667772D01*
%TO.C,S19*%
X34086023Y3656057D02*
X34770063Y5535442D01*
X34770063Y5535442D02*
X30964308Y6920624D01*
X34086023Y3656057D02*
X30280268Y5041238D01*
%TO.C,S3*%
X-180888224Y39126688D02*
X-184693979Y37741506D01*
X-180204183Y37247302D02*
X-184009938Y35862121D01*
X-180204183Y37247302D02*
X-180888224Y39126688D01*
%TO.C,S26*%
X2398429Y53224621D02*
X-1636160Y53577602D01*
X2398429Y53224621D02*
X2572740Y55217010D01*
X2572740Y55217010D02*
X-1461848Y55569991D01*
%TO.C,S15*%
X-97100000Y63650000D02*
X-97100000Y65650000D01*
X-97100000Y65650000D02*
X-101150000Y65650000D01*
X-97100000Y63650000D02*
X-101150000Y63650000D01*
%TO.C,J2*%
X-44500000Y12300000D02*
X-44500000Y13300000D01*
X-44500000Y8700000D02*
X-46100000Y8700000D01*
X-40540000Y14060000D02*
X-48360000Y14060000D01*
X-42140000Y8860000D02*
X-42140000Y9140000D01*
X-48360000Y14060000D02*
X-48360000Y7940000D01*
X-46100000Y12800000D02*
X-48360000Y12800000D01*
X-46100000Y13300000D02*
X-46100000Y12300000D01*
X-46100000Y12300000D02*
X-44500000Y12300000D01*
X-44000000Y11500000D02*
X-44000000Y10500000D01*
X-40540000Y8860000D02*
X-42140000Y8860000D01*
X-42140000Y13140000D02*
X-40540000Y13140000D01*
X-46100000Y9700000D02*
X-44500000Y9700000D01*
X-40540000Y7940000D02*
X-40540000Y8860000D01*
X-46100000Y12300000D02*
X-48360000Y12300000D01*
X-46100000Y8700000D02*
X-46100000Y9700000D01*
X-44500000Y9700000D02*
X-44500000Y8700000D01*
X-48360000Y7940000D02*
X-40540000Y7940000D01*
X-42140000Y12860000D02*
X-42140000Y13140000D01*
X-40540000Y13140000D02*
X-40540000Y14060000D01*
X-48360000Y11500000D02*
X-44000000Y11500000D01*
X-44000000Y10500000D02*
X-48360000Y10500000D01*
X-42140000Y7940000D02*
X-42140000Y8860000D01*
X-44500000Y13300000D02*
X-46100000Y13300000D01*
X-42140000Y12860000D02*
X-40925000Y12860000D01*
X-42140000Y14060000D02*
X-42140000Y13140000D01*
%TO.C,S9*%
X-138098342Y70578278D02*
X-138272654Y72570668D01*
X-138098342Y70578278D02*
X-142132931Y70225298D01*
X-138272654Y72570668D02*
X-142307242Y72217687D01*
%TO.C,S14*%
X-97100000Y48650000D02*
X-101150000Y48650000D01*
X-97100000Y46650000D02*
X-101150000Y46650000D01*
X-97100000Y46650000D02*
X-97100000Y48650000D01*
%TO.C,S25*%
X916782Y36289312D02*
X1091093Y38281701D01*
X916782Y36289312D02*
X-3117807Y36642293D01*
X1091093Y38281701D02*
X-2943495Y38634682D01*
%TO.C,S21*%
X46398748Y37484991D02*
X42592993Y38870173D01*
X45714708Y35605606D02*
X41908953Y36990787D01*
X45714708Y35605606D02*
X46398748Y37484991D01*
%TO.C,S6*%
X-160141551Y63409503D02*
X-164130022Y62706228D01*
X-159794254Y61439888D02*
X-163782726Y60736613D01*
X-159794254Y61439888D02*
X-160141551Y63409503D01*
%TO.C,S22*%
X19617293Y27122914D02*
X19964590Y29092529D01*
X19617293Y27122914D02*
X15628822Y27826189D01*
X19964590Y29092529D02*
X15976118Y29795804D01*
%TO.C,S20*%
X39900366Y19630831D02*
X36094611Y21016012D01*
X39900366Y19630831D02*
X40584406Y21510216D01*
X40584406Y21510216D02*
X36778651Y22895398D01*
%TO.C,S28*%
X-19100000Y32483334D02*
X-23150000Y32483334D01*
X-19100000Y34483334D02*
X-23150000Y34483334D01*
X-19100000Y32483334D02*
X-19100000Y34483334D01*
%TO.C,S4*%
X-153890216Y27956425D02*
X-157878688Y27253150D01*
X-154237513Y29926040D02*
X-158225984Y29222765D01*
X-153890216Y27956425D02*
X-154237513Y29926040D01*
%TO.C,S30*%
X-19100000Y66483334D02*
X-23150000Y66483334D01*
X-19100000Y66483334D02*
X-19100000Y68483334D01*
X-19100000Y68483334D02*
X-23150000Y68483334D01*
%TO.C,S13*%
X-97100000Y29650000D02*
X-101150000Y29650000D01*
X-97100000Y29650000D02*
X-97100000Y31650000D01*
X-97100000Y31650000D02*
X-101150000Y31650000D01*
%TO.C,S29*%
X-19100000Y49483334D02*
X-23150000Y49483334D01*
X-19100000Y51483334D02*
X-23150000Y51483334D01*
X-19100000Y49483334D02*
X-19100000Y51483334D01*
%TO.C,S8*%
X-136616694Y53642968D02*
X-136791006Y55635358D01*
X-136791006Y55635358D02*
X-140825594Y55282377D01*
X-136616694Y53642968D02*
X-140651283Y53289988D01*
%TO.C,S33*%
X-37100000Y65650000D02*
X-41150000Y65650000D01*
X-37100000Y63650000D02*
X-37100000Y65650000D01*
X-37100000Y63650000D02*
X-41150000Y63650000D01*
%TO.C,S36*%
X-56084055Y-3632402D02*
X-56768096Y-1753016D01*
X-56768096Y-1753016D02*
X-60573851Y-3138198D01*
X-56084055Y-3632402D02*
X-59889810Y-5017583D01*
%TD*%
M02*
