M48
; DRILL file {KiCad (6.0.5)} date Wed 11 May 2022 11:26:56 AM UTC
; FORMAT={-:-/ absolute / inch / decimal}
; #@! TF.CreationDate,2022-05-11T11:26:56+00:00
; #@! TF.GenerationSoftware,Kicad,Pcbnew,(6.0.5)
; #@! TF.FileFunction,NonPlated,1,2,NPTH
FMAT,2
INCH
; #@! TA.AperFunction,NonPlated,NPTH,ComponentDrill
T1C0.0390
; #@! TA.AperFunction,NonPlated,NPTH,ComponentDrill
T2C0.0591
; #@! TA.AperFunction,NonPlated,NPTH,ComponentDrill
T3C0.0670
; #@! TA.AperFunction,NonPlated,NPTH,ComponentDrill
T4C0.1350
%
G90
G05
T1
X-6.9977Y1.5247
X-6.7688Y0.8958
X-6.5399Y0.2669
X-6.1855Y2.4595
X-6.0693Y1.8004
X-5.9531Y1.1413
X-5.3282Y2.8099
X-5.2699Y2.1432
X-5.2116Y1.4764
X-4.5189Y0.1194
X-4.4205Y2.6391
X-4.4205Y1.9698
X-4.4205Y1.3005
X-3.7319Y0.0146
X-3.7118Y2.5276
X-3.7118Y1.8583
X-3.7118Y1.189
X-2.9751Y-0.2253
X-2.1111Y-0.0847
X-1.3496Y2.5276
X-1.3496Y1.8583
X-1.3496Y1.189
X-1.3357Y0.086
X-0.6409Y2.6391
X-0.6409Y1.9698
X-0.6409Y1.3005
X-0.5425Y0.1194
X0.1486Y1.4406
X0.2069Y2.1074
X0.2652Y2.7741
X0.8854Y1.0699
X1.0017Y1.729
X1.1179Y2.3881
X1.4537Y0.1263
X1.6826Y0.7552
X1.9115Y1.3842
T2
X-4.9528Y0.1716
X-0.9764Y0.1716
T3
X-7.3378Y1.225
X-7.1089Y0.5961
X-6.9308Y1.3731
X-6.8799Y-0.0328
X-6.7019Y0.7442
X-6.5725Y2.2234
X-6.473Y0.1153
X-6.4562Y1.5642
X-6.34Y0.9051
X-6.146Y2.2986
X-6.0297Y1.6394
X-5.9135Y0.9803
X-5.7343Y2.6084
X-5.6759Y1.9417
X-5.6176Y1.2749
X-5.3028Y2.6462
X-5.2445Y1.9794
X-5.1862Y1.3127
X-4.9409Y-0.0459
X-4.8425Y2.4738
X-4.8425Y1.8045
X-4.8425Y1.1352
X-4.5079Y-0.0459
X-4.4094Y2.4738
X-4.4094Y1.8045
X-4.4094Y1.1352
X-4.1763Y-0.0749
X-4.1339Y2.3622
X-4.1339Y1.6929
X-4.1339Y1.0236
X-3.7498Y-0.1501
X-3.7008Y2.3622
X-3.7008Y1.6929
X-3.7008Y1.0236
X-3.4282Y-0.2363
X-3.0213Y-0.3844
X-2.4512Y-0.3844
X-2.0442Y-0.2363
X-1.7717Y2.3622
X-1.7717Y1.6929
X-1.7717Y1.0236
X-1.7227Y-0.1501
X-1.3386Y2.3622
X-1.3386Y1.6929
X-1.3386Y1.0236
X-1.2962Y-0.0749
X-1.063Y2.4738
X-1.063Y1.8045
X-1.063Y1.1352
X-0.9646Y-0.0459
X-0.6299Y2.4738
X-0.6299Y1.8045
X-0.6299Y1.1352
X-0.5315Y-0.0459
X-0.2863Y1.3127
X-0.2279Y1.9794
X-0.1696Y2.6462
X0.1452Y1.2749
X0.2035Y1.9417
X0.2618Y2.6084
X0.4411Y0.9803
X0.5573Y1.6394
X0.6735Y2.2986
X0.8676Y0.9051
X0.9838Y1.5642
X1.0006Y0.1153
X1.1Y2.2234
X1.2295Y0.7442
X1.4075Y-0.0328
X1.4584Y1.3731
X1.6364Y0.5961
X1.8653Y1.225
T4
X-7.1343Y1.2991
X-6.9054Y0.6701
X-6.6765Y0.0412
X-6.3592Y2.261
X-6.243Y1.6018
X-6.1268Y0.9427
X-5.5185Y2.6273
X-5.4602Y1.9605
X-5.4019Y1.2938
X-4.7244Y-0.0459
X-4.626Y2.4738
X-4.626Y1.8045
X-4.626Y1.1352
X-3.963Y-0.1125
X-3.9173Y2.3622
X-3.9173Y1.6929
X-3.9173Y1.0236
X-3.2248Y-0.3104
X-2.2477Y-0.3104
X-1.5551Y2.3622
X-1.5551Y1.6929
X-1.5551Y1.0236
X-1.5094Y-0.1125
X-0.8465Y2.4738
X-0.8465Y1.8045
X-0.8465Y1.1352
X-0.748Y-0.0459
X-0.0706Y1.2938
X-0.0122Y1.9605
X0.0461Y2.6273
X0.6543Y0.9427
X0.7705Y1.6018
X0.8868Y2.261
X1.204Y0.0412
X1.4329Y0.6701
X1.6619Y1.2991
T0
M30
