%TF.GenerationSoftware,KiCad,Pcbnew,(6.0.5)*%
%TF.CreationDate,2022-05-11T11:26:58+00:00*%
%TF.ProjectId,ursus-arctos,75727375-732d-4617-9263-746f732e6b69,v1.0.0*%
%TF.SameCoordinates,Original*%
%TF.FileFunction,Profile,NP*%
%FSLAX46Y46*%
G04 Gerber Fmt 4.6, Leading zero omitted, Abs format (unit mm)*
G04 Created by KiCad (PCBNEW (6.0.5)) date 2022-05-11 11:26:58*
%MOMM*%
%LPD*%
G01*
G04 APERTURE LIST*
%TA.AperFunction,Profile*%
%ADD10C,0.150000*%
%TD*%
%TA.AperFunction,Profile*%
%ADD11C,0.050000*%
%TD*%
G04 APERTURE END LIST*
D10*
X-11900000Y-9666666D02*
X8000000Y-9666666D01*
X12139426Y67890787D02*
X30893641Y64583913D01*
X31981219Y-6804933D02*
X23523985Y-3726752D01*
X-158345712Y-1318221D02*
G75*
G03*
X-158902404Y-1981749I-86788J-492479D01*
G01*
X-93109035Y-12852177D02*
G75*
G03*
X-93445780Y-12761949I-683765J-1878423D01*
G01*
X-49000000Y66000000D02*
G75*
G03*
X-48500000Y66500000I100J499900D01*
G01*
X34253066Y-9334498D02*
G75*
G03*
X36816490Y-8139157I684034J1879398D01*
G01*
X-103500000Y66900000D02*
X-94500000Y66900000D01*
X-162181932Y-4666432D02*
G75*
G03*
X-163463679Y-4068772I-939668J-341968D01*
G01*
X-110827681Y-9697051D02*
X-108045577Y-10187611D01*
X-54359960Y2156381D02*
X-49815960Y3810261D01*
X-42065146Y-10522048D02*
X-41960957Y-11112933D01*
X-90000000Y49000000D02*
G75*
G03*
X-89500000Y49500000I100J499900D01*
G01*
X-161976753Y-5230260D02*
X-162181965Y-4666444D01*
X-42772127Y-12271325D02*
G75*
G03*
X-41960957Y-11112932I-173673J984825D01*
G01*
X-149000023Y-4644440D02*
G75*
G03*
X-150652704Y-2674824I-2000077J-60D01*
G01*
X-49500000Y32500000D02*
G75*
G03*
X-49000000Y32000000I500000J0D01*
G01*
X-90500000Y49000000D02*
X-90500000Y59500000D01*
X-129706528Y71333334D02*
X-109000000Y71333334D01*
X-26100000Y-8666666D02*
X-26100000Y-9666666D01*
X-66575964Y-2289881D02*
X-60937511Y-237652D01*
X49269474Y37770354D02*
X49474687Y38334170D01*
X-108045585Y-10187656D02*
G75*
G03*
X-106887121Y-9376451I173685J984756D01*
G01*
X11652700Y-2674802D02*
G75*
G03*
X10000001Y-4644440I347400J-1969698D01*
G01*
X-178480085Y43036077D02*
G75*
G03*
X-179077761Y41754371I341985J-939677D01*
G01*
X31326509Y46003744D02*
X40419780Y42694064D01*
X-48500000Y8500000D02*
G75*
G03*
X-49000000Y9000000I-500000J0D01*
G01*
X-49500000Y49500000D02*
X-49500000Y60000000D01*
X21097368Y-4546220D02*
X22037061Y-4888240D01*
X-163463678Y-4068772D02*
X-171920912Y-7146953D01*
X-188611511Y38710041D02*
G75*
G03*
X-187329782Y38112374I939711J342059D01*
G01*
X-112900000Y-9666666D02*
X-111174977Y-9666666D01*
X-5061448Y75810742D02*
G75*
G03*
X-7228150Y73992662I-174352J-1992342D01*
G01*
X-66500095Y1658241D02*
G75*
G03*
X-63815960Y-221144I1999995J-41D01*
G01*
X-72500000Y1658241D02*
X-72500000Y9000000D01*
X23523985Y-3726752D02*
X23318773Y-4290567D01*
X-75674953Y-17069311D02*
X-71228691Y-4853307D01*
X-178480088Y43036084D02*
X-170326509Y46003744D01*
X-93109036Y-12852179D02*
X-78238378Y-18264656D01*
X-11900000Y-8666666D02*
X-26100000Y-8666666D01*
X-160097367Y-4546223D02*
G75*
G03*
X-158902022Y-1982794I-684033J1879383D01*
G01*
X-90500000Y66500000D02*
G75*
G03*
X-90000000Y66000000I500000J0D01*
G01*
X-46500000Y68500000D02*
G75*
G03*
X-48500000Y66500000I100J-2000100D01*
G01*
X-90000000Y49000000D02*
X-90500000Y49000000D01*
X-46500000Y68500000D02*
X-44500000Y68500000D01*
X8885278Y74590559D02*
X-5061448Y75810740D01*
X-90500000Y5689646D02*
X-90500000Y8500000D01*
X22037059Y-4888247D02*
G75*
G03*
X23318774Y-4290567I342041J939647D01*
G01*
X-108499966Y70833334D02*
G75*
G03*
X-109000000Y71333334I-500134J-134D01*
G01*
X32578861Y-8086635D02*
G75*
G03*
X31981219Y-6804934I-939661J342035D01*
G01*
X-89500000Y43000000D02*
X-89500000Y32500000D01*
X-49500000Y32500000D02*
X-49500000Y43000000D01*
X-49815945Y3810220D02*
G75*
G03*
X-48500000Y5689646I-684055J1879380D01*
G01*
X-33500000Y68500000D02*
G75*
G03*
X-34500000Y67500000I100J-1000100D01*
G01*
X-108500000Y70500000D02*
G75*
G03*
X-106500000Y68500000I2000000J0D01*
G01*
X-49500000Y49500000D02*
G75*
G03*
X-49000000Y49000000I500000J0D01*
G01*
X-131698958Y73159018D02*
G75*
G03*
X-129706527Y71333334I1992358J174282D01*
G01*
X-149703356Y72423858D02*
X-149494333Y70034714D01*
X-48500000Y15000000D02*
X-49000000Y15000000D01*
X-44500000Y68500000D02*
X-44500000Y67900000D01*
X10000000Y-4644440D02*
X10000000Y-7666666D01*
X-43500000Y66900000D02*
X-34500000Y66900000D01*
X-84640020Y2156374D02*
G75*
G03*
X-85237713Y3438094I-939680J342026D01*
G01*
X-190696094Y38589827D02*
G75*
G03*
X-191891437Y36026397I684044J-1879387D01*
G01*
X-89500015Y6389854D02*
G75*
G03*
X-88184040Y4510469I1999915J-54D01*
G01*
X-63325012Y-17069298D02*
G75*
G03*
X-60761622Y-18264656I1879412J684098D01*
G01*
X30040933Y48230426D02*
X32515960Y62267001D01*
X-104500000Y68500000D02*
X-104500000Y67900000D01*
X-78238391Y-18264691D02*
G75*
G03*
X-75674953Y-17069311I683991J1879491D01*
G01*
X-72500000Y9000000D02*
X-66500000Y9000000D01*
X-93500000Y68500000D02*
G75*
G03*
X-94500000Y67500000I100J-1000100D01*
G01*
X-190696092Y38589822D02*
X-188816707Y39273862D01*
X-171515960Y62267001D02*
X-169040933Y48230426D01*
X-169893634Y64583872D02*
G75*
G03*
X-171515960Y62267002I347234J-1969572D01*
G01*
X32373679Y-8650461D02*
X32578891Y-8086646D01*
X-49500000Y9000000D02*
X-49000000Y9000000D01*
X-97212691Y-12097741D02*
X-97108503Y-11506856D01*
X-67771309Y-4853307D02*
X-63325047Y-17069311D01*
X-131771762Y73992670D02*
G75*
G03*
X-133938552Y75810739I-1992438J-174370D01*
G01*
X-61279828Y701932D02*
X-63815960Y-221144D01*
X-48500000Y59500000D02*
G75*
G03*
X-49000000Y60000000I-500000J0D01*
G01*
X-171920912Y-7146953D02*
X-171715700Y-7710769D01*
X-50815943Y4510421D02*
G75*
G03*
X-49500000Y6389854I-684057J1879379D01*
G01*
X-90000000Y26000000D02*
X-89500000Y26000000D01*
X-34500000Y66900000D02*
X-34500000Y67500000D01*
X-27825023Y-9666666D02*
X-26100000Y-9666666D01*
X-110827681Y-9697051D02*
G75*
G03*
X-111174977Y-9666667I-347219J-1968749D01*
G01*
X-161976753Y-5230260D02*
X-160097368Y-4546220D01*
X-72500000Y66000000D02*
X-72500000Y66500000D01*
X-48500000Y25500000D02*
G75*
G03*
X-49000000Y26000000I-500000J0D01*
G01*
X-49500000Y66500000D02*
G75*
G03*
X-51500000Y68500000I-2000000J0D01*
G01*
X-90500000Y15000000D02*
X-90500000Y25500000D01*
X-90000000Y32000000D02*
X-90500000Y32000000D01*
X-51500000Y68500000D02*
X-64500000Y68500000D01*
X-49000000Y66000000D02*
X-49500000Y66000000D01*
X-44500000Y67900000D02*
G75*
G03*
X-43500000Y66900000I1000000J0D01*
G01*
X-60761622Y-18264656D02*
X-45890964Y-12852179D01*
X-90000000Y15000000D02*
X-90500000Y15000000D01*
X-85237713Y3438093D02*
X-88184040Y4510469D01*
X-48500000Y15000000D02*
X-48500000Y25500000D01*
X-147000000Y-9666666D02*
X-127100000Y-9666666D01*
X32516002Y62266994D02*
G75*
G03*
X30893642Y64583913I-1969602J347306D01*
G01*
X-178872548Y41190555D02*
X-179077760Y41754371D01*
X50756399Y38931842D02*
X51696092Y38589822D01*
X-97108504Y-11506856D02*
G75*
G03*
X-97919662Y-10348401I-984796J173656D01*
G01*
X-90000000Y26000000D02*
G75*
G03*
X-90500000Y25500000I100J-500100D01*
G01*
X36816490Y-8139157D02*
X52891437Y36026397D01*
X-90000000Y60000000D02*
X-89500000Y60000000D01*
X-66500000Y9000000D02*
X-66500000Y1658241D01*
X-151139429Y67890801D02*
G75*
G03*
X-149494332Y70034714I-347271J1969599D01*
G01*
X-94500000Y66900000D02*
X-94500000Y67500000D01*
X-89500000Y26000000D02*
X-89500000Y15500000D01*
X-31939231Y-10361259D02*
X-32043420Y-9770374D01*
X-66500000Y66000000D02*
X-72500000Y66000000D01*
X-89500000Y60000000D02*
X-89500000Y49500000D01*
X-90000000Y15000000D02*
G75*
G03*
X-89500000Y15500000I100J499900D01*
G01*
X32373679Y-8650461D02*
X34253065Y-9334502D01*
X-53762256Y3438009D02*
G75*
G03*
X-54359959Y2156381I342056J-939709D01*
G01*
X-50815960Y4510469D02*
X-53762287Y3438093D01*
X-191891437Y36026397D02*
X-175816490Y-8139157D01*
X-27825023Y-9666664D02*
G75*
G03*
X-28172319Y-9697050I23J-2000136D01*
G01*
X10494318Y70034715D02*
G75*
G03*
X12139426Y67890788I1992382J-174315D01*
G01*
X-48500000Y5689646D02*
X-48500000Y8500000D01*
X-71228665Y-4853317D02*
G75*
G03*
X-72424036Y-2289882I-1879435J684017D01*
G01*
X-175816494Y-8139158D02*
G75*
G03*
X-173253065Y-9334502I1879394J684058D01*
G01*
X-131698917Y73159022D02*
X-131771851Y73992662D01*
X-89500000Y9000000D02*
X-89500000Y6389854D01*
X-31939231Y-10361259D02*
X-28172319Y-9697051D01*
X-28500000Y71333334D02*
X-9293472Y71333334D01*
X-49500000Y26000000D02*
X-49000000Y26000000D01*
X-49500000Y43000000D02*
X-49000000Y43000000D01*
X-112900000Y-9666666D02*
X-112900000Y-8666666D01*
X40419780Y42694064D02*
X40214568Y42130248D01*
X19902034Y-1982798D02*
G75*
G03*
X21097368Y-4546219I1879466J-684002D01*
G01*
X52891452Y36026391D02*
G75*
G03*
X51696092Y38589822I-1879452J684009D01*
G01*
D11*
X-72500000Y43000000D02*
X-66500000Y43000000D01*
X-66500000Y43000000D02*
X-66500000Y60000000D01*
X-66500000Y60000000D02*
X-72500000Y60000000D01*
X-72500000Y60000000D02*
X-72500000Y43000000D01*
D10*
X-93500000Y68500000D02*
X-92500000Y68500000D01*
X-173253065Y-9334502D02*
X-172313372Y-8992482D01*
X-127100000Y-8666666D02*
X-127100000Y-9666666D01*
X8000000Y-9666700D02*
G75*
G03*
X10000000Y-7666666I0J2000000D01*
G01*
X-97919662Y-10348400D02*
X-106782932Y-8785567D01*
X40214568Y42130248D02*
G75*
G03*
X40812241Y40848535I939632J-342048D01*
G01*
X-148999966Y-7666666D02*
G75*
G03*
X-147000000Y-9666666I1999866J-134D01*
G01*
X-75184053Y-221181D02*
G75*
G03*
X-72500000Y1658241I684053J1879381D01*
G01*
X-112900000Y-8666666D02*
X-127100000Y-8666666D01*
X-48500000Y49000000D02*
X-49000000Y49000000D01*
X-97212691Y-12097741D02*
X-93445779Y-12761949D01*
X30040933Y48230426D02*
G75*
G03*
X31326508Y46003743I1969567J-347326D01*
G01*
X-90000000Y43000000D02*
G75*
G03*
X-90500000Y42500000I100J-500100D01*
G01*
X-90000000Y60000000D02*
G75*
G03*
X-90500000Y59500000I100J-500100D01*
G01*
X19902398Y-1981748D02*
G75*
G03*
X19345733Y-1318336I-469798J171048D01*
G01*
X-60937510Y-237655D02*
G75*
G03*
X-61279234Y702148I-170990J469855D01*
G01*
X-90500000Y66500000D02*
G75*
G03*
X-92500000Y68500000I-2000000J0D01*
G01*
X-149000000Y-7666666D02*
X-149000000Y-4644440D01*
X-28500000Y71333300D02*
G75*
G03*
X-30500000Y69333334I0J-2000000D01*
G01*
X10703355Y72423858D02*
G75*
G03*
X8885278Y74590560I-1992355J174342D01*
G01*
X-87500000Y68500000D02*
G75*
G03*
X-89500000Y66500000I100J-2000100D01*
G01*
X-49500000Y66000000D02*
X-49500000Y66500000D01*
X-133938552Y75810740D02*
X-147885278Y74590559D01*
X-49500000Y60000000D02*
X-49000000Y60000000D01*
X-187329782Y38112374D02*
X-178872548Y41190555D01*
X-106782932Y-8785567D02*
X-106887121Y-9376451D01*
X-9293472Y71333367D02*
G75*
G03*
X-7301083Y73159023I-28J2000033D01*
G01*
X10494333Y70034714D02*
X10703356Y72423858D01*
X-170326506Y46003739D02*
G75*
G03*
X-169040934Y48230426I-684054J1879391D01*
G01*
X-104500000Y67900000D02*
G75*
G03*
X-103500000Y66900000I1000000J0D01*
G01*
X-147885278Y74590561D02*
G75*
G03*
X-149703355Y72423858I174338J-1992411D01*
G01*
X50756398Y38931839D02*
G75*
G03*
X49474687Y38334170I-341998J-939739D01*
G01*
X-33500000Y68500000D02*
X-31000000Y68500000D01*
X-150652704Y-2674825D02*
X-158345732Y-1318336D01*
X-45554221Y-12761949D02*
G75*
G03*
X-45890965Y-12852179I347521J-1970451D01*
G01*
X-90000000Y43000000D02*
X-89500000Y43000000D01*
X-7228149Y73992662D02*
X-7301083Y73159022D01*
X-188816707Y39273862D02*
X-188611495Y38710047D01*
X-90500022Y5689646D02*
G75*
G03*
X-89184040Y3810261I1999922J-46D01*
G01*
X-172313365Y-8992500D02*
G75*
G03*
X-171715699Y-7710769I-342035J939700D01*
G01*
X-49500000Y15500000D02*
G75*
G03*
X-49000000Y15000000I500000J0D01*
G01*
X-72500000Y32000000D02*
X-66500000Y32000000D01*
X-66500000Y32000000D02*
X-66500000Y15000000D01*
X-66500000Y15000000D02*
X-72500000Y15000000D01*
X-72500000Y15000000D02*
X-72500000Y32000000D01*
X-108500000Y70500000D02*
X-108500000Y70833334D01*
X40812241Y40848535D02*
X49269474Y37770354D01*
X-89500000Y66000000D02*
X-90000000Y66000000D01*
X-33201876Y-8959215D02*
X-42065146Y-10522048D01*
X-90500000Y32000000D02*
X-90500000Y42500000D01*
X-64500000Y68500000D02*
G75*
G03*
X-66500000Y66500000I100J-2000100D01*
G01*
X-48500000Y32000000D02*
X-48500000Y42500000D01*
X-32043406Y-9770372D02*
G75*
G03*
X-33201877Y-8959215I-984794J-173628D01*
G01*
X-11900000Y-9666666D02*
X-11900000Y-8666666D01*
X-78062192Y-237760D02*
X-72424036Y-2289881D01*
X-90000000Y9000000D02*
G75*
G03*
X-90500000Y8500000I100J-500100D01*
G01*
X-49500000Y15500000D02*
X-49500000Y26000000D01*
X-75184040Y-221144D02*
X-77720469Y702040D01*
X-45554221Y-12761949D02*
X-42772116Y-12271389D01*
X-89184040Y3810261D02*
X-84640040Y2156381D01*
X-74500000Y68500000D02*
X-87500000Y68500000D01*
X-48500000Y32000000D02*
X-49000000Y32000000D01*
X-66500000Y66500000D02*
X-66500000Y66000000D01*
X-48500000Y49000000D02*
X-48500000Y59500000D01*
X-49500000Y6389854D02*
X-49500000Y9000000D01*
X-77720446Y702102D02*
G75*
G03*
X-78062786Y-237544I-170954J-469902D01*
G01*
X-89500000Y66500000D02*
X-89500000Y66000000D01*
X-90000000Y9000000D02*
X-89500000Y9000000D01*
X-106500000Y68500000D02*
X-104500000Y68500000D01*
X-66575978Y-2289843D02*
G75*
G03*
X-67771310Y-4853307I683978J-1879357D01*
G01*
X-30500000Y69333334D02*
X-30500000Y69000000D01*
X-31000000Y68500000D02*
G75*
G03*
X-30500000Y69000000I100J499900D01*
G01*
X19345732Y-1318336D02*
X11652704Y-2674825D01*
X-48500000Y42500000D02*
G75*
G03*
X-49000000Y43000000I-500000J0D01*
G01*
X-169893641Y64583913D02*
X-151139426Y67890787D01*
X-90000000Y32000000D02*
G75*
G03*
X-89500000Y32500000I100J499900D01*
G01*
X-72500000Y66500000D02*
G75*
G03*
X-74500000Y68500000I-2000000J0D01*
G01*
M02*
