%TF.GenerationSoftware,KiCad,Pcbnew,(6.0.5)*%
%TF.CreationDate,2022-05-11T11:26:57+00:00*%
%TF.ProjectId,ursus-arctos,75727375-732d-4617-9263-746f732e6b69,v1.0.0*%
%TF.SameCoordinates,Original*%
%TF.FileFunction,Paste,Top*%
%TF.FilePolarity,Positive*%
%FSLAX46Y46*%
G04 Gerber Fmt 4.6, Leading zero omitted, Abs format (unit mm)*
G04 Created by KiCad (PCBNEW (6.0.5)) date 2022-05-11 11:26:57*
%MOMM*%
%LPD*%
G01*
G04 APERTURE LIST*
G04 Aperture macros list*
%AMRoundRect*
0 Rectangle with rounded corners*
0 $1 Rounding radius*
0 $2 $3 $4 $5 $6 $7 $8 $9 X,Y pos of 4 corners*
0 Add a 4 corners polygon primitive as box body*
4,1,4,$2,$3,$4,$5,$6,$7,$8,$9,$2,$3,0*
0 Add four circle primitives for the rounded corners*
1,1,$1+$1,$2,$3*
1,1,$1+$1,$4,$5*
1,1,$1+$1,$6,$7*
1,1,$1+$1,$8,$9*
0 Add four rect primitives between the rounded corners*
20,1,$1+$1,$2,$3,$4,$5,0*
20,1,$1+$1,$4,$5,$6,$7,0*
20,1,$1+$1,$6,$7,$8,$9,0*
20,1,$1+$1,$8,$9,$2,$3,0*%
%AMRotRect*
0 Rectangle, with rotation*
0 The origin of the aperture is its center*
0 $1 length*
0 $2 width*
0 $3 Rotation angle, in degrees counterclockwise*
0 Add horizontal line*
21,1,$1,$2,0,0,$3*%
G04 Aperture macros list end*
%ADD10RoundRect,0.499745X0.874395X0.499745X-0.874395X0.499745X-0.874395X-0.499745X0.874395X-0.499745X0*%
%ADD11RotRect,2.000000X1.200000X170.000000*%
%ADD12R,2.000000X1.200000*%
%ADD13RotRect,2.000000X1.200000X175.000000*%
%ADD14RotRect,2.000000X1.200000X160.000000*%
%ADD15RotRect,2.000000X1.200000X200.000000*%
%ADD16RotRect,2.000000X1.200000X185.000000*%
%ADD17RotRect,2.000000X1.200000X190.000000*%
G04 APERTURE END LIST*
D10*
%TO.C,U1*%
X-147255000Y-7483250D03*
X-147255000Y-4943250D03*
X-147255000Y-2403250D03*
X-147255000Y136750D03*
X-147255000Y2676750D03*
X-147255000Y5216750D03*
X-147255000Y7756750D03*
X-130745000Y7756750D03*
X-130745000Y5216750D03*
X-130745000Y2676750D03*
X-130745000Y136750D03*
X-130745000Y-2403250D03*
X-130745000Y-4943250D03*
X-130745000Y-7483250D03*
%TD*%
%TO.C,U2*%
X8255000Y-7620000D03*
X8255000Y-5080000D03*
X8255000Y-2540000D03*
X8255000Y0D03*
X8255000Y2540000D03*
X8255000Y5080000D03*
X8255000Y7620000D03*
X-8255000Y7620000D03*
X-8255000Y5080000D03*
X-8255000Y2540000D03*
X-8255000Y0D03*
X-8255000Y-2540000D03*
X-8255000Y-5080000D03*
X-8255000Y-7620000D03*
%TD*%
D11*
%TO.C,S24*%
X22149672Y62216318D03*
X24513210Y61799562D03*
%TD*%
%TO.C,S17*%
X-101035026Y1929100D03*
X-98671488Y1512344D03*
%TD*%
D12*
%TO.C,S34*%
X-20200000Y8483334D03*
X-17800000Y8483334D03*
%TD*%
D13*
%TO.C,S27*%
X380932Y71469886D03*
X2771799Y71260712D03*
%TD*%
D12*
%TO.C,S11*%
X-118700000Y50483334D03*
X-116300000Y50483334D03*
%TD*%
D14*
%TO.C,S18*%
X-81446293Y-3103133D03*
X-79191031Y-3923981D03*
%TD*%
D12*
%TO.C,S16*%
X-121200000Y8483334D03*
X-118800000Y8483334D03*
%TD*%
%TO.C,S10*%
X-118700000Y33483334D03*
X-116300000Y33483334D03*
%TD*%
D11*
%TO.C,S23*%
X19197653Y45474587D03*
X21561191Y45057831D03*
%TD*%
D15*
%TO.C,S1*%
X-172300412Y5006174D03*
X-170045150Y5827022D03*
%TD*%
D12*
%TO.C,S12*%
X-118700000Y67483334D03*
X-116300000Y67483334D03*
%TD*%
%TO.C,S32*%
X-40700000Y47650000D03*
X-38300000Y47650000D03*
%TD*%
D16*
%TO.C,S7*%
X-138808504Y37390093D03*
X-136417637Y37599267D03*
%TD*%
D15*
%TO.C,S2*%
X-178114755Y20980948D03*
X-175859493Y21801796D03*
%TD*%
D17*
%TO.C,S35*%
X-40328512Y1512344D03*
X-37964974Y1929100D03*
%TD*%
D12*
%TO.C,S31*%
X-40700000Y30650000D03*
X-38300000Y30650000D03*
%TD*%
D17*
%TO.C,S5*%
X-160561191Y45057831D03*
X-158197653Y45474587D03*
%TD*%
D14*
%TO.C,S19*%
X31045150Y5827022D03*
X33300412Y5006174D03*
%TD*%
D15*
%TO.C,S3*%
X-183929097Y36955723D03*
X-181673835Y37776571D03*
%TD*%
D13*
%TO.C,S26*%
X-1100716Y54534576D03*
X1290151Y54325402D03*
%TD*%
D12*
%TO.C,S15*%
X-100700000Y64650000D03*
X-98300000Y64650000D03*
%TD*%
D16*
%TO.C,S9*%
X-141771799Y71260712D03*
X-139380932Y71469886D03*
%TD*%
D12*
%TO.C,S14*%
X-100700000Y47650000D03*
X-98300000Y47650000D03*
%TD*%
D13*
%TO.C,S25*%
X-2582363Y37599267D03*
X-191496Y37390093D03*
%TD*%
D14*
%TO.C,S21*%
X42673835Y37776571D03*
X44929097Y36955723D03*
%TD*%
D17*
%TO.C,S6*%
X-163513210Y61799562D03*
X-161149672Y62216318D03*
%TD*%
D11*
%TO.C,S22*%
X16245634Y28732855D03*
X18609172Y28316099D03*
%TD*%
D14*
%TO.C,S20*%
X36859493Y21801796D03*
X39114755Y20980948D03*
%TD*%
D12*
%TO.C,S28*%
X-22700000Y33483334D03*
X-20300000Y33483334D03*
%TD*%
D17*
%TO.C,S4*%
X-157609172Y28316099D03*
X-155245634Y28732855D03*
%TD*%
D12*
%TO.C,S30*%
X-22700000Y67483334D03*
X-20300000Y67483334D03*
%TD*%
%TO.C,S13*%
X-100700000Y30650000D03*
X-98300000Y30650000D03*
%TD*%
%TO.C,S29*%
X-22700000Y50483334D03*
X-20300000Y50483334D03*
%TD*%
D16*
%TO.C,S8*%
X-140290151Y54325402D03*
X-137899284Y54534576D03*
%TD*%
D12*
%TO.C,S33*%
X-40700000Y64650000D03*
X-38300000Y64650000D03*
%TD*%
D15*
%TO.C,S36*%
X-59808969Y-3923981D03*
X-57553707Y-3103133D03*
%TD*%
M02*
