M48
; DRILL file {KiCad (6.0.5)} date Wed 11 May 2022 11:26:56 AM UTC
; FORMAT={-:-/ absolute / inch / decimal}
; #@! TF.CreationDate,2022-05-11T11:26:56+00:00
; #@! TF.GenerationSoftware,Kicad,Pcbnew,(6.0.5)
; #@! TF.FileFunction,Plated,1,2,PTH
FMAT,2
INCH
; #@! TA.AperFunction,Plated,PTH,ViaDrill
T1C0.0157
; #@! TA.AperFunction,Plated,PTH,ComponentDrill
T2C0.0295
; #@! TA.AperFunction,Plated,PTH,ComponentDrill
T3C0.0354
; #@! TA.AperFunction,Plated,PTH,ComponentDrill
T4C0.0500
%
G90
G05
T1
X-6.0827Y0.2362
X-5.7283Y0.4724
X-5.689Y0.4724
X-5.6496Y0.4724
X-5.3543Y0.3937
X-5.059Y2.6969
X-5.0394Y0.4724
X-5.0394Y0.4331
X-5.0394Y0.3937
X-5.0197Y2.0276
X-4.9803Y1.3583
X-0.4921Y2.5984
X-0.4528Y1.9291
X-0.4134Y1.2598
X-0.2559Y0.3937
X-0.2165Y0.3937
X-0.1772Y0.3937
X-0.1575Y0.315
X-0.0787Y0.2756
X0.0394Y0.4134
X0.0787Y0.4134
X0.1181Y0.5512
X0.1181Y0.4921
X0.25Y0.1
X0.25Y-0.2
X0.25Y-0.3
X0.2506Y0.0
X0.2506Y-0.1
X0.6102Y0.2362
T2
X-5.5224Y-0.2216
X-5.5224Y-0.3216
X-5.4224Y-0.2216
X-5.4224Y-0.3216
X-5.2924Y-0.0096
X-5.2924Y-0.0796
X-3.8189Y0.4724
X-3.8189Y0.3937
X-1.6535Y0.4724
X-1.6535Y0.3937
X-0.05Y-0.227
X-0.05Y-0.327
X0.05Y-0.227
X0.05Y-0.327
X0.18Y-0.015
X0.18Y-0.085
T3
X-4.8547Y0.1716
X-4.7547Y0.1716
X-4.6547Y0.1716
X-4.5547Y0.1716
X-4.4606Y0.2198
X-4.4606Y0.147
X-0.8783Y0.1716
X-0.7783Y0.1716
X-0.6783Y0.1716
X-0.5783Y0.1716
X-0.4843Y0.2198
X-0.4843Y0.147
T4
X-7.2681Y1.0912
X-7.0548Y1.0808
X-7.0392Y0.4622
X-6.8259Y0.4519
X-6.8103Y-0.1667
X-6.597Y-0.1771
X-6.5271Y2.0795
X-6.4109Y1.4203
X-6.3189Y2.0322
X-6.2947Y0.7612
X-6.2027Y1.3731
X-6.0864Y0.714
X-5.7016Y2.4611
X-5.6433Y1.7943
X-5.5849Y1.1276
X-5.4983Y2.3959
X-5.44Y1.7291
X-5.3816Y1.0624
X-4.9213Y-0.1955
X-4.8228Y2.3241
X-4.8228Y1.6549
X-4.8228Y0.9856
X-4.7244Y-0.2782
X-4.626Y2.2415
X-4.626Y1.5722
X-4.626Y0.9029
X-4.1829Y-0.2257
X-4.1142Y2.2126
X-4.1142Y1.5433
X-4.1142Y0.874
X-4.0034Y-0.3413
X-3.9173Y2.1299
X-3.9173Y1.4606
X-3.9173Y0.7913
X-3.4609Y-0.3836
X-3.3042Y-0.5286
X-2.3815Y-0.5183
X-2.1682Y-0.5286
X-1.752Y2.2126
X-1.752Y1.5433
X-1.752Y0.874
X-1.6773Y-0.2941
X-1.5551Y2.1299
X-1.5551Y1.4606
X-1.5551Y0.7913
X-1.4691Y-0.3413
X-1.0433Y2.3241
X-1.0433Y1.6549
X-1.0433Y0.9856
X-0.9449Y-0.1955
X-0.8465Y2.2415
X-0.8465Y1.5722
X-0.8465Y0.9029
X-0.748Y-0.2782
X-0.2797Y1.1619
X-0.2214Y1.8287
X-0.163Y2.4954
X-0.0908Y1.0624
X-0.0325Y1.7291
X0.0259Y2.3959
X0.4345Y0.8296
X0.5507Y1.4887
X0.614Y0.714
X0.6669Y2.1478
X0.7302Y1.3731
X0.8464Y2.0322
X0.9679Y-0.032
X1.1246Y-0.1771
X1.1968Y0.5969
X1.3535Y0.4519
X1.4257Y1.2258
X1.5824Y1.0808
T0
M30
